<?xml version="1.0" encoding="utf-8" ?>
<svg
    xmlns="http://www.w3.org/2000/svg"
    viewBox="0 0 985 48"
  >
    <rect
      id="background"
      x="0"
      y="0"
      width="985"
      height="48"
      fill="white"
    />
    <svg
      x="10"
      y="0"
      width="225"
      height="16"
    >
      <text
        x="0%"
        y="80%"
        width="100%"
        height="100%"
        textLength="100%"
        lengthAdjust="spacingAndGlyphs"
        fill="black"
        font-family="monospace"
      >pdu --top-down tmp.sample</text>
    </svg><svg
      x="10"
      y="16"
      width="369"
      height="16"
    >
      <text
        x="0%"
        y="80%"
        width="100%"
        height="100%"
        textLength="100%"
        lengthAdjust="spacingAndGlyphs"
        fill="black"
        font-family="monospace"
      >dust --apparent-size --reverse tmp.sample</text>
    </svg><svg
      x="10"
      y="32"
      width="153"
      height="16"
    >
      <text
        x="0%"
        y="80%"
        width="100%"
        height="100%"
        textLength="100%"
        lengthAdjust="spacingAndGlyphs"
        fill="black"
        font-family="monospace"
      >dutree tmp.sample</text>
    </svg>
    <rect
      x="389"
      y="0"
      width="16"
      height="16"
      fill="red"
    /><rect
      x="389"
      y="16"
      width="71"
      height="16"
      fill="green"
    /><rect
      x="389"
      y="32"
      width="512"
      height="16"
      fill="blue"
    />
    <svg
      x="911"
      y="0"
      width="54"
      height="16"
    >
      <text
        x="0%"
        y="80%"
        width="100%"
        height="100%"
        fill="black"
        font-family="monospace"
      >0.123s</text>
    </svg><svg
      x="911"
      y="16"
      width="54"
      height="16"
    >
      <text
        x="0%"
        y="80%"
        width="100%"
        height="100%"
        fill="black"
        font-family="monospace"
      >0.540s</text>
    </svg><svg
      x="911"
      y="32"
      width="54"
      height="16"
    >
      <text
        x="0%"
        y="80%"
        width="100%"
        height="100%"
        fill="black"
        font-family="monospace"
      >3.879s</text>
    </svg>
  </svg>