<?xml version="1.0" encoding="utf-8" ?>
<svg
    xmlns="http://www.w3.org/2000/svg"
    viewBox="0 0 949 48"
  >
    <rect
      id="background"
      x="0"
      y="0"
      width="949"
      height="48"
      fill="white"
    />
    <svg
      x="10"
      y="0"
      width="252"
      height="16"
    >
      <text
        x="0%"
        y="80%"
        width="100%"
        height="100%"
        textLength="100%"
        lengthAdjust="spacingAndGlyphs"
        fill="black"
        font-family="monospace"
      >pdu --max-depth=1 tmp.sample</text>
    </svg><svg
      x="10"
      y="16"
      width="243"
      height="16"
    >
      <text
        x="0%"
        y="80%"
        width="100%"
        height="100%"
        textLength="100%"
        lengthAdjust="spacingAndGlyphs"
        fill="black"
        font-family="monospace"
      >dutree --summary tmp.sample</text>
    </svg><svg
      x="10"
      y="32"
      width="333"
      height="16"
    >
      <text
        x="0%"
        y="80%"
        width="100%"
        height="100%"
        textLength="100%"
        lengthAdjust="spacingAndGlyphs"
        fill="black"
        font-family="monospace"
      >du --apparent-size --total tmp.sample</text>
    </svg>
    <rect
      x="353"
      y="0"
      width="202"
      height="16"
      fill="red"
    /><rect
      x="353"
      y="16"
      width="512"
      height="16"
      fill="green"
    /><rect
      x="353"
      y="32"
      width="302"
      height="16"
      fill="blue"
    />
    <svg
      x="875"
      y="0"
      width="54"
      height="16"
    >
      <text
        x="0%"
        y="80%"
        width="100%"
        height="100%"
        fill="black"
        font-family="monospace"
      >0.125s</text>
    </svg><svg
      x="875"
      y="16"
      width="54"
      height="16"
    >
      <text
        x="0%"
        y="80%"
        width="100%"
        height="100%"
        fill="black"
        font-family="monospace"
      >0.316s</text>
    </svg><svg
      x="875"
      y="32"
      width="54"
      height="16"
    >
      <text
        x="0%"
        y="80%"
        width="100%"
        height="100%"
        fill="black"
        font-family="monospace"
      >0.187s</text>
    </svg>
  </svg>