<?xml version="1.0" encoding="utf-8" ?>
<svg
    xmlns="http://www.w3.org/2000/svg"
    viewBox="0 0 895 64"
  >
    <rect
      id="background"
      x="0"
      y="0"
      width="895"
      height="64"
      fill="white"
    />
    <svg
      x="10"
      y="0"
      width="261"
      height="16"
    >
      <text
        x="0%"
        y="80%"
        width="100%"
        height="100%"
        textLength="100%"
        lengthAdjust="spacingAndGlyphs"
        fill="black"
        font-family="monospace"
      >pdu --quantity=len tmp.sample</text>
    </svg><svg
      x="10"
      y="16"
      width="279"
      height="16"
    >
      <text
        x="0%"
        y="80%"
        width="100%"
        height="100%"
        textLength="100%"
        lengthAdjust="spacingAndGlyphs"
        fill="black"
        font-family="monospace"
      >dust --apparent-size tmp.sample</text>
    </svg><svg
      x="10"
      y="32"
      width="153"
      height="16"
    >
      <text
        x="0%"
        y="80%"
        width="100%"
        height="100%"
        textLength="100%"
        lengthAdjust="spacingAndGlyphs"
        fill="black"
        font-family="monospace"
      >dutree tmp.sample</text>
    </svg><svg
      x="10"
      y="48"
      width="261"
      height="16"
    >
      <text
        x="0%"
        y="80%"
        width="100%"
        height="100%"
        textLength="100%"
        lengthAdjust="spacingAndGlyphs"
        fill="black"
        font-family="monospace"
      >du --apparent-size tmp.sample</text>
    </svg>
    <rect
      x="299"
      y="0"
      width="17"
      height="16"
      fill="red"
    /><rect
      x="299"
      y="16"
      width="74"
      height="16"
      fill="green"
    /><rect
      x="299"
      y="32"
      width="512"
      height="16"
      fill="blue"
    /><rect
      x="299"
      y="48"
      width="25"
      height="16"
      fill="cyan"
    />
    <svg
      x="821"
      y="0"
      width="54"
      height="16"
    >
      <text
        x="0%"
        y="80%"
        width="100%"
        height="100%"
        fill="black"
        font-family="monospace"
      >0.126s</text>
    </svg><svg
      x="821"
      y="16"
      width="54"
      height="16"
    >
      <text
        x="0%"
        y="80%"
        width="100%"
        height="100%"
        fill="black"
        font-family="monospace"
      >0.559s</text>
    </svg><svg
      x="821"
      y="32"
      width="54"
      height="16"
    >
      <text
        x="0%"
        y="80%"
        width="100%"
        height="100%"
        fill="black"
        font-family="monospace"
      >3.882s</text>
    </svg><svg
      x="821"
      y="48"
      width="54"
      height="16"
    >
      <text
        x="0%"
        y="80%"
        width="100%"
        height="100%"
        fill="black"
        font-family="monospace"
      >0.188s</text>
    </svg>
  </svg>