<?xml version="1.0" encoding="utf-8" ?>
<svg
    xmlns="http://www.w3.org/2000/svg"
    viewBox="0 0 877 48"
  >
    <rect
      id="background"
      x="0"
      y="0"
      width="877"
      height="48"
      fill="white"
    />
    <svg
      x="10"
      y="0"
      width="252"
      height="16"
    >
      <text
        x="0%"
        y="80%"
        width="100%"
        height="100%"
        textLength="100%"
        lengthAdjust="spacingAndGlyphs"
        fill="black"
        font-family="monospace"
      >pdu --min-ratio=0 tmp.sample</text>
    </svg><svg
      x="10"
      y="16"
      width="153"
      height="16"
    >
      <text
        x="0%"
        y="80%"
        width="100%"
        height="100%"
        textLength="100%"
        lengthAdjust="spacingAndGlyphs"
        fill="black"
        font-family="monospace"
      >dutree tmp.sample</text>
    </svg><svg
      x="10"
      y="32"
      width="261"
      height="16"
    >
      <text
        x="0%"
        y="80%"
        width="100%"
        height="100%"
        textLength="100%"
        lengthAdjust="spacingAndGlyphs"
        fill="black"
        font-family="monospace"
      >du --apparent-size tmp.sample</text>
    </svg>
    <rect
      x="281"
      y="0"
      width="92"
      height="16"
      fill="red"
    /><rect
      x="281"
      y="16"
      width="512"
      height="16"
      fill="green"
    /><rect
      x="281"
      y="32"
      width="24"
      height="16"
      fill="blue"
    />
    <svg
      x="803"
      y="0"
      width="54"
      height="16"
    >
      <text
        x="0%"
        y="80%"
        width="100%"
        height="100%"
        fill="black"
        font-family="monospace"
      >0.705s</text>
    </svg><svg
      x="803"
      y="16"
      width="54"
      height="16"
    >
      <text
        x="0%"
        y="80%"
        width="100%"
        height="100%"
        fill="black"
        font-family="monospace"
      >3.916s</text>
    </svg><svg
      x="803"
      y="32"
      width="54"
      height="16"
    >
      <text
        x="0%"
        y="80%"
        width="100%"
        height="100%"
        fill="black"
        font-family="monospace"
      >0.185s</text>
    </svg>
  </svg>