<?xml version="1.0" encoding="utf-8" ?>
<svg
    xmlns="http://www.w3.org/2000/svg"
    viewBox="0 0 913 64"
  >
    <rect
      id="background"
      x="0"
      y="0"
      width="913"
      height="64"
      fill="white"
    />
    <svg
      x="10"
      y="0"
      width="297"
      height="16"
    >
      <text
        x="0%"
        y="80%"
        width="100%"
        height="100%"
        textLength="100%"
        lengthAdjust="spacingAndGlyphs"
        fill="black"
        font-family="monospace"
      >pdu --quantity=blksize tmp.sample</text>
    </svg><svg
      x="10"
      y="16"
      width="135"
      height="16"
    >
      <text
        x="0%"
        y="80%"
        width="100%"
        height="100%"
        textLength="100%"
        lengthAdjust="spacingAndGlyphs"
        fill="black"
        font-family="monospace"
      >dust tmp.sample</text>
    </svg><svg
      x="10"
      y="32"
      width="225"
      height="16"
    >
      <text
        x="0%"
        y="80%"
        width="100%"
        height="100%"
        textLength="100%"
        lengthAdjust="spacingAndGlyphs"
        fill="black"
        font-family="monospace"
      >dutree --usage tmp.sample</text>
    </svg><svg
      x="10"
      y="48"
      width="117"
      height="16"
    >
      <text
        x="0%"
        y="80%"
        width="100%"
        height="100%"
        textLength="100%"
        lengthAdjust="spacingAndGlyphs"
        fill="black"
        font-family="monospace"
      >du tmp.sample</text>
    </svg>
    <rect
      x="317"
      y="0"
      width="16"
      height="16"
      fill="red"
    /><rect
      x="317"
      y="16"
      width="110"
      height="16"
      fill="green"
    /><rect
      x="317"
      y="32"
      width="512"
      height="16"
      fill="blue"
    /><rect
      x="317"
      y="48"
      width="24"
      height="16"
      fill="cyan"
    />
    <svg
      x="839"
      y="0"
      width="54"
      height="16"
    >
      <text
        x="0%"
        y="80%"
        width="100%"
        height="100%"
        fill="black"
        font-family="monospace"
      >0.128s</text>
    </svg><svg
      x="839"
      y="16"
      width="54"
      height="16"
    >
      <text
        x="0%"
        y="80%"
        width="100%"
        height="100%"
        fill="black"
        font-family="monospace"
      >0.869s</text>
    </svg><svg
      x="839"
      y="32"
      width="54"
      height="16"
    >
      <text
        x="0%"
        y="80%"
        width="100%"
        height="100%"
        fill="black"
        font-family="monospace"
      >4.032s</text>
    </svg><svg
      x="839"
      y="48"
      width="54"
      height="16"
    >
      <text
        x="0%"
        y="80%"
        width="100%"
        height="100%"
        fill="black"
        font-family="monospace"
      >0.185s</text>
    </svg>
  </svg>